<svg xmlns="http://www.w3.org/2000/svg" width="21.205" height="24.234" viewBox="0 0 21.205 24.234">
  <defs>
    <style>
      .a{fill:#5D5D5D;}</style>
    </defs>
    <g transform="translate(-32)">
      <g transform="translate(32)">
        <g transform="translate(0)">
          <circle class="a" cx="0.947" cy="0.947" r="0.947" transform="translate(15.052 15.43)"/>
          <path class="a" d="M52.258,17.134a.947.947,0,0,0,.947-.947v-3.5A3.791,3.791,0,0,0,49.418,8.9H48.281V5.56a5.681,5.681,0,0,0-11.36,0V8.9H35.787A3.791,3.791,0,0,0,32,12.685v7.763a3.791,3.791,0,0,0,3.787,3.787H49.418a3.791,3.791,0,0,0,3.787-3.787.947.947,0,0,0-1.893,0,1.9,1.9,0,0,1-1.893,1.893H35.787a1.9,1.9,0,0,1-1.893-1.893V12.685a1.9,1.9,0,0,1,1.893-1.893H49.418a1.9,1.9,0,0,1,1.893,1.893v3.5A.947.947,0,0,0,52.258,17.134ZM46.387,8.9H38.814V5.56a3.789,3.789,0,0,1,7.573,0Z" transform="translate(-32)"/>
          <circle class="a" cx="0.947" cy="0.947" r="0.947" transform="translate(7.905 15.43)"/>
          <circle class="a" cx="0.947" cy="0.947" r="0.947" transform="translate(4.355 15.43)"/>
          <circle class="a" cx="0.947" cy="0.947" r="0.947" transform="translate(11.455 15.43)"/>
        </g>
      </g>
    </g>
  </svg>
