<svg xmlns="http://www.w3.org/2000/svg" width="23.912" height="23.912" viewBox="0 0 23.912 23.912"><defs><style>.a{fill:#5D5D5D;}</style></defs><g transform="translate(0)"><path class="a" d="M6.142,22.044H2.835a.949.949,0,0,1-.747-.355.976.976,0,0,1-.2-.818A10.32,10.32,0,0,1,11.718,12.7c.079,0,.158,0,.238,0s.16,0,.24,0a10.23,10.23,0,0,1,3.374.65.934.934,0,0,0,.657-1.749q-.232-.087-.467-.164a6.352,6.352,0,1,0-7.6,0,12.147,12.147,0,0,0-8.1,9.051,2.838,2.838,0,0,0,2.774,3.422H6.142a.934.934,0,1,0,0-1.868ZM7.473,6.352a4.483,4.483,0,1,1,4.7,4.478l-.218,0-.219,0A4.489,4.489,0,0,1,7.473,6.352Z" transform="translate(0)"/><path class="a" d="M162.378,314.476a2.517,2.517,0,0,0-2.3-1.476h-2.919a2.473,2.473,0,0,0-2.336,1.579c-.049.128-.109.289-.172.476h-6.116a.934.934,0,0,0-.67.283l-1.6,1.653a.934.934,0,0,0,0,1.305l1.635,1.663a.934.934,0,0,0,.666.279H151.6a.934.934,0,1,0,0-1.868H148.96l-.721-.733.694-.715h6.421a.934.934,0,0,0,.907-.712,7.721,7.721,0,0,1,.307-.962.612.612,0,0,1,.6-.381h2.915a.637.637,0,0,1,.593.37,6.032,6.032,0,0,1,.552,2.381,6.21,6.21,0,0,1-.548,2.424.638.638,0,0,1-.587.382h-2.95a.665.665,0,0,1-.6-.414,6.206,6.206,0,0,1-.289-.925.934.934,0,1,0-1.817.435,8.032,8.032,0,0,0,.379,1.2,2.52,2.52,0,0,0,2.327,1.569h2.954a2.5,2.5,0,0,0,2.3-1.5,8.086,8.086,0,0,0,.7-3.175A7.908,7.908,0,0,0,162.378,314.476Z" transform="translate(-139.181 -298.382)"/><ellipse class="a" cx="0.934" cy="0.934" rx="0.934" ry="0.934" transform="translate(19.195 18.308)"/></g></svg>
